<?xml version="1.0" standalone="no"?>
<svg width="500" height="500" version="1.1" xmlns="http://www.w3.org/2000/svg">

  <rect x="15" y="15" width="100" height="100" stroke="purple" fill="transparent" stroke-width="5"/>
  <rect x="180" y="100" rx="10" ry="35" width="70" height="90" stroke="green" fill="transparent" stroke-width="5"/>

  <circle cx="170" cy="55" r="45" stroke="blue" fill="transparent" stroke-width="5"/>
  <ellipse cx="65" cy="155" rx="60" ry="30" stroke="red" fill="transparent" stroke-width="5"/>

  <line x1="220" x2="100" y1="150" y2="180" stroke="black" stroke-width="5"/>
  <polyline points="80 130 75 150 80 135 95 140 85 125 85 145 90 135 95 155 120 145"
      stroke="orange" fill="transparent" stroke-width="5"/>

  <polygon points="50 160 55 180 70 180 60 190 65 205 50 195 35 205 40 190 30 180 45 180"
      stroke="gold" fill="transparent" stroke-width="5"/>

  <path d="M20,230 Q40,205 50,230 T90,230" fill="none" stroke="brown" stroke-width="5"/>
</svg>
